<?xml version="1.0" encoding="UTF-8"?>
<svg id="Layer_2" xmlns="http://www.w3.org/2000/svg" version="1.1" viewBox="0 0 444 98.3">
  <!-- Generator: Adobe Illustrator 30.7.0, SVG Export Plug-In . SVG Version: 2.1.4 Build 114)  -->
  <defs>
    <style>
      .st0 {
        fill: #ed1a3b;
      }

      .st1 {
        fill: #58595b;
      }

      .st2 {
        fill: #fff;
      }

      .st3 {
        fill: #003964;
      }
    </style>
  </defs>
  <circle class="st2" cx="49.2" cy="49.2" r="49.2"/>
  <g id="Layer_1-2">
    <g>
      <g>
        <path class="st3" d="M73.7,45.5c-8.3-5.6-18.9-3.3-24.5,5.1-4.7,7.1-11.7,8-14.4,8-8.9,0-14.9-6.2-16.7-12.7h0c0,0,0-.1,0-.2,0,0,0-.1,0-.2-.7-2.7-.9-4-.9-6.8,0-15.4,15.8-32.6,38.6-32.6s36.7,17.8,40.1,27.6c0-.2-.1-.3-.2-.5C89.1,13.9,70.7,0,49.2,0S0,22,0,49.2s17.5,45.1,41.8,45.1,32.4-10.9,38.4-25.8c3.3-8.2.9-17.8-6.5-22.9h0Z"/>
        <path class="st0" d="M96.2,34.7c-2.9-9.6-16.3-28.6-40.5-28.6S17.1,23.3,17.1,38.7s.2,4.2.9,6.8c-.3-1.2-.5-2.4-.5-3.5,0-16.1,16.1-27.2,32.6-27.2s40.5,18.2,40.5,40.5-10.1,32.7-24.8,40h0c18.9-6.8,32.4-25,32.4-46.2s-.7-9.5-2.2-14.5h0Z"/>
      </g>
      <g>
        <path class="st1" d="M132.8,29.1l12.4,16.9-3.9,2.6-8.5-11.8-8.5,12.1-4-2.6,12.4-17.2h0ZM124,53.1h31.4v15.5h-4.9v-11.1h-26.5v-4.4ZM150.5,29.6h4.9v20.9h-4.9s0-20.9,0-20.9Z"/>
        <path class="st1" d="M195.3,55.4v12.9h-30.3v-13h12.8v-3.5h-15.7v-4.1h36.1v4.1h-15.7v3.5s12.8,0,12.8,0ZM164.4,44.9v-4h5.4v-6.5h-5.4v-4.1h31.5v4.1h-5.4v6.5h5.4v4h-31.5,0ZM190.5,59.3h-20.8v4.9h20.8s0-4.9,0-4.9ZM185.8,34.3h-11.4v6.5h11.4v-6.5Z"/>
        <path class="st1" d="M228.9,60.1v4.3h-26.3v-4.3s26.3,0,26.3,0ZM226.4,42.1c0,1.5-.3,2.9-.9,4.2-.6,1.3-1.4,2.5-2.4,3.5-1,.9-2.2,1.7-3.5,2.3-1.4.6-2.8.9-4.3.9s-3-.3-4.4-.9c-1.4-.6-2.6-1.3-3.5-2.3-1-1-1.9-2.2-2.4-3.5-.6-1.3-.9-2.7-.9-4.2s.3-2.9.9-4.2c.6-1.3,1.4-2.4,2.4-3.4,1-1,2.1-1.7,3.5-2.3s2.8-.9,4.4-.9,3,.3,4.3.9c1.4.6,2.5,1.3,3.5,2.3,1,1,1.8,2.1,2.4,3.4.6,1.3.9,2.7.9,4.2ZM221.7,42.1c0-.9-.2-1.7-.5-2.5-.3-.8-.8-1.5-1.4-2.1-.6-.6-1.3-1-2.1-1.4-.8-.3-1.6-.5-2.5-.5s-1.7.2-2.5.5-1.5.8-2.1,1.4c-.6.6-1,1.3-1.4,2.1-.4.8-.5,1.6-.5,2.5s.2,1.7.5,2.5c.4.8.8,1.5,1.4,2.1.6.6,1.3,1,2.1,1.4.8.3,1.6.5,2.5.5s1.7-.2,2.5-.5c.8-.3,1.5-.8,2.1-1.4.6-.6,1.1-1.3,1.4-2.1.3-.8.5-1.6.5-2.5ZM231.8,29.6h4.9v39.3h-4.9V29.6Z"/>
        <path class="st1" d="M264.1,39.6c0,1.3-.3,2.6-.8,3.7-.6,1.2-1.3,2.2-2.2,3.1-.9.9-2,1.6-3.2,2.1-1.2.5-2.6.8-4,.8s-2.8-.3-4-.8c-1.2-.5-2.3-1.2-3.2-2.1-.9-.9-1.7-1.9-2.2-3.1-.6-1.2-.8-2.4-.8-3.7s.3-2.6.8-3.8c.6-1.2,1.3-2.2,2.2-3.1.9-.9,2-1.6,3.2-2.1,1.2-.5,2.6-.8,4-.8s2.7.3,4,.8c1.2.5,2.3,1.2,3.2,2.1.9.8,1.7,1.9,2.2,3.1.6,1.2.8,2.4.8,3.8ZM244.8,53.1h30.9v15.5h-4.9v-11h-26.1v-4.5ZM259.4,39.6c0-1.5-.5-2.8-1.6-3.9-1.1-1.1-2.4-1.6-3.9-1.6s-2.9.5-3.9,1.6-1.6,2.4-1.6,3.9.5,2.9,1.6,3.9,2.4,1.6,3.9,1.6,2.8-.5,3.9-1.6,1.6-2.4,1.6-3.9ZM275.8,50.5h-4.9v-20.9h4.9v3.6h5.6v4.2h-5.6v4h5.6v4.3h-5.6v4.8Z"/>
        <path class="st1" d="M319.2,55.4v12.9h-30.3v-13h12.8v-3.5h-15.7v-4.1h36.1v4.1h-15.7v3.5s12.8,0,12.8,0ZM288.3,44.9v-4h5.4v-6.5h-5.4v-4.1h31.5v4.1h-5.4v6.5h5.4v4h-31.5ZM314.5,59.3h-20.8v4.9h20.8s0-4.9,0-4.9ZM309.8,34.3h-11.4v6.5h11.4v-6.5Z"/>
        <path class="st1" d="M348.7,40.8c0,1.4-.3,2.8-.9,4-.6,1.3-1.4,2.4-2.4,3.3-1,1-2.1,1.7-3.5,2.3-1.3.6-2.7.8-4.2.8s-3-.3-4.3-.8c-1.3-.6-2.5-1.3-3.4-2.3-1-1-1.8-2.1-2.4-3.3-.6-1.3-.9-2.6-.9-4s.3-2.8.9-4.1,1.4-2.4,2.4-3.4c1-1,2.1-1.7,3.4-2.3,1.3-.6,2.8-.8,4.3-.8s2.9.3,4.2.8,2.5,1.3,3.5,2.3c1,1,1.8,2.1,2.4,3.4.6,1.3.9,2.6.9,4.1ZM334.3,55v8.8h26.4v4.3h-31.3v-13.1h4.9ZM344.1,40.8c0-.8-.2-1.7-.5-2.4s-.8-1.4-1.4-2c-.6-.6-1.2-1-2-1.4-.8-.3-1.6-.5-2.4-.5s-1.6.2-2.4.5c-.8.3-1.4.8-2,1.4-.6.6-1,1.2-1.3,2-.3.8-.5,1.5-.5,2.4s.2,1.7.5,2.4.8,1.4,1.3,2c.6.6,1.3,1,2,1.4.8.3,1.5.5,2.4.5s1.6-.2,2.4-.5c.8-.3,1.4-.8,2-1.4.6-.6,1-1.2,1.4-2s.5-1.5.5-2.4ZM359.7,54.8h-4.9v-25.1h4.9v8.6h5.6v4.8h-5.6v11.8Z"/>
        <path class="st1" d="M369,34.9v-4.2h22.5v4.2h-9.6l10,13.9-3.5,2.6-8-11.4-7.9,11.7-3.6-2.6,10-14.2s-9.8,0-9.8,0ZM371.6,68.1v-13.1h4.8v8.8h27.4v4.3h-32.2,0ZM398.6,54.8v-12h-7.3v-4.3h7.3v-8.8h4.9v25.2h-4.9Z"/>
        <path class="st1" d="M419.2,33.5v-4.2h5.3v4.2h9.3v4.2h-10l10.9,24.4-4,1.8-8.9-20.2-8.8,20.5-4.1-1.8,10.9-24.6h-10.4v-4.2h9.8,0ZM439.2,49.5h-7.3v-4.4h7.3v-15.5h4.9v39.3h-4.9v-19.4Z"/>
      </g>
    </g>
  </g>
</svg>