<?xml version="1.0" encoding="UTF-8"?>
<svg id="Layer_2" data-name="Layer 2" xmlns="http://www.w3.org/2000/svg" viewBox="0 0 417.74 86.71">
  <defs>
    <style>
      .cls-1 {
        fill: #58595b;
      }

      .cls-2 {
        fill: #ed1a3b;
      }

      .cls-3 {
        fill: #fff;
      }

      .cls-4 {
        fill: #003964;
      }
    </style>
  </defs>
  <g id="Layer_1-2" data-name="Layer 1">
    <path class="cls-3" d="M86.71,43.35c0,23.94-19.41,43.36-43.36,43.36S0,67.3,0,43.35,19.41,0,43.36,0s43.36,19.41,43.36,43.35"/>
    <g>
      <g>
        <path class="cls-4" d="M64.96,40.15c-7.31-4.97-16.67-2.95-21.6,4.53-4.09,6.25-10.29,7.02-12.68,7.02-7.83,0-13.17-5.5-14.76-11.2h0c-.02-.06-.03-.11-.04-.16-.02-.07-.03-.13-.05-.19-.62-2.38-.78-3.51-.78-6.04,0-13.6,13.97-28.75,34.07-28.75s32.38,15.67,35.42,24.39c-.06-.16-.11-.31-.16-.46C78.54,12.25,62.38,0,43.35,0,19.41,0,0,19.4,0,43.36c0,21.41,15.44,39.72,36.86,39.72,17.08,0,28.56-9.57,33.81-22.77,2.89-7.22.85-15.7-5.71-20.16Z"/>
        <path class="cls-2" d="M84.81,30.59c-2.54-8.5-14.4-25.23-35.69-25.23-20.1,0-34.07,15.15-34.07,28.75,0,2.52.16,3.65.78,6.04-.26-1.04-.39-2.08-.39-3.09,0-14.17,14.19-23.99,28.77-23.99,19.75,0,35.75,16.01,35.75,35.75,0,15.47-8.91,28.87-21.84,35.31h0c16.68-6.03,28.59-22.01,28.59-40.77,0-4.44-.6-8.36-1.9-12.76Z"/>
      </g>
      <g>
        <path class="cls-1" d="M124.51,47.29v-2.59h-17.18v-4.63h39.84v4.63h-17.23v2.59c.5.15,1.05.3,1.54.5,1.29.55,2.44,1.24,3.44,2.14,1,.95,1.79,1.99,2.39,3.19.55,1.25.85,2.54.85,3.94s-.3,2.69-.85,3.88c-.6,1.24-1.4,2.34-2.39,3.23-1,.9-2.14,1.64-3.44,2.14-1.34.55-2.74.8-4.23.8s-2.94-.25-4.23-.8c-1.34-.5-2.49-1.25-3.44-2.14-.99-.89-1.79-1.99-2.34-3.23-.6-1.2-.9-2.49-.9-3.88s.3-2.69.9-3.94c.55-1.2,1.35-2.24,2.34-3.19.95-.9,2.09-1.59,3.44-2.14.5-.2,1-.35,1.49-.5ZM144.38,26.92h-14.64l15.44,8.22-2.44,3.98-15.49-8.27-15.49,8.27-2.44-3.98,15.44-8.22h-14.64v-4.58h34.26v4.58ZM132.83,57.06c0-1.49-.55-2.79-1.64-3.88-1.15-1.05-2.44-1.6-3.94-1.6s-2.79.55-3.88,1.6c-1.15,1.09-1.69,2.39-1.69,3.88s.55,2.79,1.69,3.83c1.1,1.09,2.39,1.64,3.88,1.64s2.79-.55,3.94-1.64c1.1-1.05,1.64-2.34,1.64-3.83Z"/>
        <path class="cls-1" d="M168.94,57.2v-12.45h5.43v12.45h17.23v4.78h-39.84v-4.78h17.18ZM171.68,30.76l-14.44,18.08-4.18-3.14,18.63-23.26,18.63,23.26-4.18,3.14-14.44-18.08Z"/>
        <path class="cls-1" d="M216.71,45.75h-18.77v-23.01h5.13v6.23h8.62v-6.23h5.03v23.01ZM199.78,64.33v-14.49h5.38v9.71h30.93v4.78h-36.31ZM211.68,33.6h-8.62v7.52h8.62v-7.52ZM222.24,21.84h5.08v27.49h-5.08v-13.25h-4.53v-4.73h4.53v-9.51ZM230.5,21.8h5.18v27.79h-5.18v-27.79Z"/>
        <path class="cls-1" d="M252.52,26.38v-4.63h5.78v4.63h10.36v4.63h-11.01l11.9,26.64-4.48,1.99-9.66-22.01-9.56,22.36-4.58-2.04,11.9-26.94h-11.46v-4.63h10.81ZM275.23,43.81h-8.37v-4.78h8.37v-17.23h5.38v43.38h-5.38v-21.36Z"/>
        <path class="cls-1" d="M308.81,59.49h-5.38v-30.18h-16.63v-4.83h22.01v35.01ZM319.66,21.8h5.38v43.38h-5.38V21.8Z"/>
        <path class="cls-1" d="M356.82,33.15c0,1.54-.3,2.99-.89,4.28-.65,1.35-1.49,2.49-2.54,3.49-1.04.99-2.24,1.79-3.64,2.34-1.44.6-2.94.9-4.53.9s-3.09-.3-4.48-.9c-1.44-.55-2.69-1.35-3.69-2.34-1.1-1-1.89-2.14-2.49-3.49-.65-1.29-.95-2.74-.95-4.28s.3-2.94.95-4.33c.6-1.29,1.39-2.49,2.49-3.49,1-1,2.24-1.79,3.69-2.39,1.4-.55,2.89-.85,4.48-.85s3.09.3,4.53.85c1.39.6,2.59,1.39,3.64,2.39,1.05,1,1.89,2.19,2.54,3.49.6,1.4.89,2.84.89,4.33ZM336.5,46h5.28v4.08h23.41v-4.08h5.28v18.33h-33.96v-18.33ZM351.64,33.15c0-1.74-.65-3.24-1.84-4.53-1.29-1.25-2.79-1.89-4.53-1.89s-3.29.65-4.53,1.89c-1.29,1.3-1.89,2.79-1.89,4.53s.6,3.29,1.89,4.48c1.25,1.3,2.74,1.89,4.53,1.89s3.24-.6,4.53-1.89c1.19-1.2,1.84-2.69,1.84-4.48ZM365.19,54.46h-23.41v5.38h23.41v-5.38ZM358.22,30.81h6.87v-9.01h5.38v22.96h-5.38v-9.21h-6.87v-4.73Z"/>
        <path class="cls-1" d="M377.9,49.24h39.84v4.78h-17.23v11.15h-5.43v-11.15h-17.18v-4.78ZM386.41,28.02h22.81v-5.48h5.33v20.87h-33.47v-20.87h5.33v5.48ZM409.22,32.7h-22.81v5.98h22.81v-5.98Z"/>
      </g>
    </g>
  </g>
</svg>